<svg fill="none" height="47" viewBox="0 0 327 47" width="327" xmlns="http://www.w3.org/2000/svg"><path d="m35.7163 34.288c0 1.7493-.3627 3.3493-1.088 4.8-.6827 1.4507-1.6427 2.688-2.88 3.712-1.1947 1.024-2.6027 1.8133-4.224 2.368-1.5787.5547-3.2854.832-5.12.832h-21.568044v-45.440002h22.592044c1.5786 0 3.008.341334 4.288 1.024002 1.28.68267 2.368 1.57867 3.264 2.688.896 1.06667 1.5786 2.304 2.048 3.712.512 1.36533.768 2.752.768 4.16 0 2.2613-.576 4.352-1.728 6.272-1.1094 1.92-2.7094 3.3493-4.8 4.288 2.6026.768 4.6506 2.1973 6.144 4.288 1.536 2.048 2.304 4.48 2.304 7.296zm-5.824-1.024c0-1.024-.192-2.0053-.576-2.944-.3414-.9813-.832-1.8347-1.472-2.56-.5974-.7253-1.3227-1.3013-2.176-1.728-.8534-.4267-1.792-.64-2.816-.64h-16.25604v15.616h15.80804c1.0666 0 2.048-.2133 2.944-.64s1.6853-.9813 2.368-1.664c.6826-.7253 1.216-1.5573 1.6-2.496s.576-1.92.576-2.944zm-23.29604-27.712v15.168h14.46404c1.024 0 1.9626-.192 2.816-.576.8533-.4267 1.5786-.9813 2.176-1.664.64-.6827 1.1306-1.472 1.472-2.368.384-.9387.576-1.92.576-2.944 0-1.0667-.1707-2.0693-.512-3.008-.3414-.93867-.8107-1.74934-1.408-2.432-.5547-.68267-1.2587-1.216-2.112-1.6-.8107-.384-1.6854-.576-2.624-.576zm34.61754 40.448v-45.440002h30.016v5.120002h-24.256v15.168h20.416v4.8h-20.416v20.352zm30.996-23.04c0-2.7307.4693-5.44 1.408-8.128.9813-2.7307 2.3893-5.16267 4.224-7.296 1.8773-2.176 4.16-3.92533 6.848-5.248 2.688-1.322669 5.7386-1.984003 9.152-1.984003 4.0533 0 7.5302.917333 10.4322 2.752003 2.901 1.83467 5.056 4.224 6.464 7.168l-4.544 2.944c-.683-1.4507-1.515-2.6667-2.496-3.648-.939-.98134-1.984-1.77067-3.136-2.368-1.1096-.59734-2.2616-1.024-3.4562-1.28-1.1947-.256-2.368-.384-3.52-.384-2.5174 0-4.7574.53333-6.72 1.6-1.92 1.024-3.5414 2.38933-4.864 4.096-1.3227 1.664-2.3254 3.5627-3.008 5.696-.64 2.0907-.96 4.2027-.96 6.336 0 2.3893.384 4.672 1.152 6.848.8106 2.1333 1.92 4.032 3.328 5.696s3.072 2.9867 4.992 3.968 4.0106 1.472 6.272 1.472c1.1946 0 2.4106-.1493 3.648-.448 1.28-.2987 2.496-.768 3.6482-1.408 1.152-.6827 2.218-1.5147 3.2-2.496 1.024-1.024 1.856-2.24 2.496-3.648l4.8 2.624c-.726 1.7067-1.75 3.2213-3.072 4.544-1.28 1.28-2.752 2.368-4.416 3.264-1.622.896-3.35 1.5787-5.1842 2.048-1.8347.4693-3.6267.704-5.376.704-3.1147 0-5.9734-.6827-8.576-2.048-2.6027-1.3653-4.864-3.136-6.784-5.312-1.8774-2.2187-3.3494-4.7147-4.416-7.488-1.024-2.816-1.536-5.6747-1.536-8.576z" fill="#979797"/><path d="m162.614 5.68h-15.68v40.32h-5.76v-40.32h-15.68v-5.120002h37.12zm21.042 40.64c-3.2 0-6.123-.64-8.768-1.92-2.603-1.3227-4.843-3.0507-6.72-5.184-1.878-2.176-3.328-4.6507-4.352-7.424s-1.536-5.6107-1.536-8.512c0-3.0293.533-5.9307 1.6-8.704 1.109-2.7733 2.624-5.22667 4.544-7.36s4.181-3.81867 6.784-5.056c2.645-1.280003 5.504-1.920002 8.576-1.920002 3.2 0 6.101.682667 8.704 2.048002 2.602 1.32267 4.842 3.072 6.72 5.248 1.877 2.176 3.328 4.6507 4.352 7.424 1.024 2.7307 1.536 5.5253 1.536 8.384 0 3.0293-.555 5.9307-1.664 8.704-1.067 2.7733-2.56 5.2267-4.48 7.36-1.878 2.0907-4.139 3.776-6.784 5.056-2.603 1.2373-5.44 1.856-8.512 1.856zm-15.552-23.04c0 2.304.362 4.544 1.088 6.72.768 2.1333 1.834 4.032 3.2 5.696 1.365 1.664 3.008 2.9867 4.928 3.968s4.053 1.472 6.4 1.472c2.432 0 4.608-.512 6.528-1.536 1.92-1.0667 3.541-2.432 4.864-4.096 1.365-1.7067 2.389-3.6267 3.072-5.76.725-2.1333 1.088-4.288 1.088-6.464 0-2.304-.384-4.5227-1.152-6.656-.726-2.176-1.792-4.0747-3.2-5.696-1.366-1.664-3.008-2.98667-4.928-3.968-1.878-.98133-3.968-1.472-6.272-1.472-2.432 0-4.608.512-6.528 1.536s-3.563 2.368-4.928 4.032c-1.323 1.664-2.347 3.5627-3.072 5.696-.726 2.1333-1.088 4.3093-1.088 6.528zm42.435 22.72v-45.376003h5.76v25.088003l23.424-25.152002h6.208l-18.24 20.032002 19.264 25.408h-6.272l-16.512-22.08-7.872 8.192v13.888zm40.918-45.440002 13.76 23.680002 13.888-23.680002h6.272l-17.28 28.864002v16.576h-5.76v-16.704l-17.216-28.736002zm53.144 45.760002c-3.2 0-6.123-.64-8.768-1.92-2.603-1.3227-4.843-3.0507-6.72-5.184-1.878-2.176-3.328-4.6507-4.352-7.424s-1.536-5.6107-1.536-8.512c0-3.0293.533-5.9307 1.6-8.704 1.109-2.7733 2.624-5.22667 4.544-7.36s4.181-3.81867 6.784-5.056c2.645-1.280003 5.504-1.920002 8.576-1.920002 3.2 0 6.101.682667 8.704 2.048002 2.602 1.32267 4.842 3.072 6.72 5.248 1.877 2.176 3.328 4.6507 4.352 7.424 1.024 2.7307 1.536 5.5253 1.536 8.384 0 3.0293-.555 5.9307-1.664 8.704-1.067 2.7733-2.56 5.2267-4.48 7.36-1.878 2.0907-4.139 3.776-6.784 5.056-2.603 1.2373-5.44 1.856-8.512 1.856zm-15.552-23.04c0 2.304.362 4.544 1.088 6.72.768 2.1333 1.834 4.032 3.2 5.696 1.365 1.664 3.008 2.9867 4.928 3.968s4.053 1.472 6.4 1.472c2.432 0 4.608-.512 6.528-1.536 1.92-1.0667 3.541-2.432 4.864-4.096 1.365-1.7067 2.389-3.6267 3.072-5.76.725-2.1333 1.088-4.288 1.088-6.464 0-2.304-.384-4.5227-1.152-6.656-.726-2.176-1.792-4.0747-3.2-5.696-1.366-1.664-3.008-2.98667-4.928-3.968-1.878-.98133-3.968-1.472-6.272-1.472-2.432 0-4.608.512-6.528 1.536s-3.563 2.368-4.928 4.032c-1.323 1.664-2.347 3.5627-3.072 5.696-.726 2.1333-1.088 4.3093-1.088 6.528z" fill="#ed293b"/></svg>